<?xml version="1.0" ?><!DOCTYPE svg  PUBLIC '-//W3C//DTD SVG 1.1//EN'  'http://www.w3.org/Graphics/SVG/1.1/DTD/svg11.dtd'><svg enable-background="new 0 0 64 64" height="64px" id="Layer_1" version="1.1" viewBox="0 0 64 64" width="64px" xml:space="preserve" xmlns="http://www.w3.org/2000/svg" xmlns:xlink="http://www.w3.org/1999/xlink"><g><line fill="none" stroke="#4D4D4D" stroke-linecap="round" stroke-linejoin="round" stroke-miterlimit="10" stroke-width="2" x1="17.5" x2="22.5" y1="41.3" y2="41.3"/><path d="M23,24.8   c0-1.1,0.9-2,2-2h13v-7H9v19h14V24.8z" fill="none" stroke="#4D4D4D" stroke-linecap="round" stroke-linejoin="round" stroke-miterlimit="10"/><rect fill="none" height="19" stroke="#4D4D4D" stroke-linecap="round" stroke-linejoin="round" stroke-miterlimit="10" width="29" x="26" y="25.7"/><line fill="none" stroke="#4D4D4D" stroke-linecap="round" stroke-linejoin="round" stroke-miterlimit="10" stroke-width="2" x1="34.5" x2="46.5" y1="51.3" y2="51.3"/><path d="   M23,24.8c0-1.1,0.9-2,2-2h16v-8c0-1.1-0.9-2-2-2H8c-1.1,0-2,0.9-2,2v20.9c0,1.1,0.9,2,2,2h15V24.8z" fill="none" stroke="#4D4D4D" stroke-linecap="round" stroke-linejoin="round" stroke-miterlimit="10" stroke-width="2"/><path d="   M58,45.7c0,1.1-0.9,2-2,2H25c-1.1,0-2-0.9-2-2V24.8c0-1.1,0.9-2,2-2h31c1.1,0,2,0.9,2,2V45.7z" fill="none" stroke="#4D4D4D" stroke-linecap="round" stroke-linejoin="round" stroke-miterlimit="10" stroke-width="2"/><line fill="none" stroke="#4D4D4D" stroke-linecap="round" stroke-linejoin="round" stroke-miterlimit="10" x1="50.5" x2="50.5" y1="39.7" y2="30"/></g></svg>