<?xml version="1.0" encoding="UTF-8"?>
<svg xmlns="http://www.w3.org/2000/svg" xmlns:xlink="http://www.w3.org/1999/xlink" contentScriptType="text/ecmascript" width="32" baseProfile="tiny" zoomAndPan="magnify" contentStyleType="text/css" viewBox="0 0 32 55" height="55" preserveAspectRatio="xMidYMid meet" version="1.0">
    <rect width="32" fill="none" height="55"/>
    <radialGradient gradientTransform="matrix(3.584 0 0 3.9783 56.53 -86.5286)" gradientUnits="userSpaceOnUse" xlink:type="simple" r="4.4838" xlink:actuate="onLoad" cx="-11.1699" id="XMLID_2_" cy="28.7886" xlink:show="other">
        <stop stop-color="#fff3f3" offset="0"/>
        <stop stop-color="#dcdcdc" offset="1"/>
    </radialGradient>
    <path fill="url(#XMLID_2_)" d="M 23.5 10.826 L 23.5 30.069 L 23.5 30.652 C 23.5 31.328 23.354 31.996 23.059 32.649002 C 22.766 33.302002 22.325 33.896004 21.74 34.428 C 21.667 34.525 21.593 34.585003 21.52 34.609 C 21.446 34.634003 21.411 34.692 21.411 34.79 C 21.411 34.841 21.52 34.938 21.740002 35.082 C 22.325 35.614 22.766005 36.208 23.059002 36.861 C 23.354002 37.514 23.500002 38.18 23.500002 38.858 L 23.500002 40.093 L 23.500002 45.756004 L 23.500002 46.33701 C 23.500002 47.838005 22.912004 49.122005 21.736002 50.187004 C 20.34 51.394 18.613 52.0 16.557 52.0 C 14.350999 52.0 12.622 51.394 11.372999 50.186 C 10.126 49.07 9.5 47.789 9.5 46.338 L 9.5 45.757 L 9.5 40.092 L 9.5 38.861 C 9.5 37.408 10.123 36.149 11.373 35.085 C 11.373 35.036 11.481 34.941 11.702 34.793 C 11.627999 34.696 11.554999 34.638 11.481 34.612 C 11.408 34.589 11.373 34.529 11.373 34.431 C 10.123 33.367 9.5 32.108 9.5 30.655 L 9.5 30.074 L 9.5 10.836 L 9.5 9.674 C 9.5 8.174 10.126 6.89 11.373 5.8259997 C 12.549 4.7149997 14.019 4.132 15.783 4.0849996 L 16.003 4.0109997 L 16.003 4.0849996 C 16.077 4.0349994 16.262001 4.0109997 16.557001 4.0109997 C 16.85 4.0109997 17.071 4.0319996 17.217 4.0729995 L 17.217 4.0 L 17.217 4.074 C 18.908 4.1229997 20.413002 4.703 21.737 5.817 C 22.325 6.351 22.766 6.943 23.059002 7.596 C 23.354 8.25 23.5 8.938 23.5 9.665 L 23.5 10.826 z M 14.26 30.582 C 14.26 31.357 14.495 31.986 14.971001 32.47 C 15.443001 32.954002 15.972001 33.197002 16.557001 33.197002 C 17.067 33.197002 17.575 32.954002 18.086 32.47 C 18.597 31.986002 18.852 31.357 18.852 30.582 L 18.852 30.073 L 18.852 10.834 L 18.852 9.744 C 18.852 8.969 18.597002 8.327999 18.086 7.821 C 17.574 7.314 17.066 7.058 16.557001 7.058 C 15.972001 7.058 15.443001 7.314 14.971001 7.821 C 14.495001 8.328 14.26 8.969 14.26 9.744 L 14.26 10.834 L 14.26 30.073 L 14.26 30.582 z M 18.852 39.004 C 18.852 38.229 18.597 37.588 18.086 37.081 C 17.574 36.572 17.065998 36.317 16.557 36.317 C 15.971999 36.317 15.442999 36.571003 14.970999 37.081 C 14.494999 37.588 14.259998 38.229 14.259998 39.004 L 14.259998 40.091003 L 14.259998 45.756004 L 14.259998 46.265003 C 14.259998 46.992004 14.494998 47.608 14.970999 48.115 C 15.442999 48.624 15.971999 48.876003 16.557 48.876003 C 17.067 48.876003 17.575 48.624004 18.086 48.115 C 18.596998 47.608 18.852 46.992 18.852 46.265003 L 18.852 45.756004 L 18.852 40.091003 L 18.852 39.004 z " stroke-width="0.25" stroke="#ffffff"/>
</svg>
