<?xml version="1.0" encoding="UTF-8"?>
<svg xmlns="http://www.w3.org/2000/svg" xmlns:xlink="http://www.w3.org/1999/xlink" contentScriptType="text/ecmascript" width="32" baseProfile="tiny" zoomAndPan="magnify" contentStyleType="text/css" viewBox="0 0 32 55" height="55" preserveAspectRatio="xMidYMid meet" version="1.0">
    <rect width="32" fill="none" height="55"/>
    <radialGradient gradientTransform="matrix(3.5276 0 0 3.9793 -41.7047 -83.4198)" gradientUnits="userSpaceOnUse" xlink:type="simple" r="4.4896" xlink:actuate="onLoad" cx="16.499" id="XMLID_2_" cy="28" xlink:show="other">
        <stop stop-color="#fff3f3" offset="0"/>
        <stop stop-color="#dcdcdc" offset="1"/>
    </radialGradient>
    <path fill="url(#XMLID_2_)" d="M 23.5 48.892 L 23.5 52.0 L 9.5 52.0 L 9.5 51.926 L 9.608 33.036 L 18.815 33.036 L 18.815 9.66 C 18.815 8.934999 18.558998 8.316999 18.055998 7.808 C 17.549995 7.301 17.008995 7.047 16.431997 7.047 L 16.214998 7.047 L 9.5 7.047 L 9.5 4.0 L 15.684999 4.0 L 16.446999 4.0 C 18.471 4.0 20.172 4.606 21.547 5.815 C 22.124998 6.347 22.56 6.938 22.849 7.591 C 23.139 8.244 23.356 8.908 23.5 9.584 L 23.5 36.133 L 23.5 36.207 L 14.185 36.207 L 14.185 48.892 L 23.5 48.892 z " stroke-width="0.25" stroke="#ffffff"/>
</svg>
