<?xml version="1.0" encoding="UTF-8"?>
<svg xmlns="http://www.w3.org/2000/svg" xmlns:xlink="http://www.w3.org/1999/xlink" contentScriptType="text/ecmascript" width="32" baseProfile="tiny" zoomAndPan="magnify" contentStyleType="text/css" viewBox="0 0 32 55" height="55" preserveAspectRatio="xMidYMid meet" version="1.0">
    <rect width="32" fill="none" height="55"/>
    <g>
        <radialGradient gradientUnits="userSpaceOnUse" xlink:type="simple" r="17.6901" xlink:actuate="onLoad" cx="16.5" id="XMLID_2_" cy="28" xlink:show="other">
            <stop stop-color="#fff3f3" offset="0"/>
            <stop stop-color="#dcdcdc" offset="1"/>
        </radialGradient>
        <path fill="url(#XMLID_2_)" d="M 23.563 10.833 L 23.563 45.684 L 23.563 46.337 C 23.563 47.838 22.969 49.120003 21.784 50.185 C 20.374 51.395 18.632 52.0 16.556 52.0 L 16.445 52.0 C 14.369 52.0 12.625999 51.395 11.216999 50.185 C 10.029999 49.023003 9.437999 47.741 9.437999 46.336 L 9.437999 45.683 L 9.437999 10.826 L 9.437999 9.664 C 9.437999 8.212 10.030999 6.953 11.216999 5.8879995 C 12.476999 4.726 13.996999 4.1209993 15.777999 4.0719995 L 15.999 4.0 L 15.999 4.081 L 16.222 4.081 C 16.296 4.081 16.333 4.068 16.333 4.041 C 16.333 4.014 16.37 4.0 16.444 4.0 L 16.555 4.0 C 16.629 4.0 16.703001 4.014 16.778 4.041 C 16.853 4.068 16.963 4.081 17.111 4.081 L 17.111 4.008 L 17.222 4.08 C 19.001 4.1289997 20.522 4.7339997 21.783 5.895 C 22.969002 6.863 23.562 8.122 23.562 9.67 L 23.562 10.833 z M 18.875 9.744 C 18.875 8.97 18.614 8.34 18.094 7.856001 C 17.572 7.372 17.015 7.13 16.42 7.13 C 15.899 7.13 15.397 7.372 14.913 7.856 C 14.429 8.34 14.187 8.97 14.187 9.744 L 14.187 10.832999 L 14.187 45.684 L 14.187 46.264004 C 14.187 46.991005 14.428 47.60801 14.913 48.117004 C 15.396 48.625004 15.898 48.879005 16.42 48.879005 C 17.015 48.879005 17.572 48.625004 18.094 48.117004 C 18.615 47.60801 18.875 46.991005 18.875 46.264004 L 18.875 45.684 L 18.875 10.833 L 18.875 9.744 z "/>
    </g>
</svg>
