<?xml version="1.0" encoding="UTF-8" standalone="no"?>
<!-- Created with Inkscape (http://www.inkscape.org/) -->

<svg
   xmlns:dc="http://purl.org/dc/elements/1.1/"
   xmlns:cc="http://creativecommons.org/ns#"
   xmlns:rdf="http://www.w3.org/1999/02/22-rdf-syntax-ns#"
   xmlns:svg="http://www.w3.org/2000/svg"
   xmlns="http://www.w3.org/2000/svg"
   version="1.1"
   width="24"
   height="24"
   viewBox="0 0 24 24"
   id="Layer_1"
   xml:space="preserve"><metadata
   id="metadata9"><rdf:RDF><cc:Work
       rdf:about=""><dc:format>image/svg+xml</dc:format><dc:type
         rdf:resource="http://purl.org/dc/dcmitype/StillImage" /><dc:title></dc:title></cc:Work></rdf:RDF></metadata><defs
   id="defs7" />
<path
   d="m 10.718,18.561 6.78,5.311 c 0.111,0.085 0.179,0.128 0.245,0.128 0.188,0 0.244,-0.127 0.244,-0.338 v -5.023 c 0,-0.355 0.233,-0.637 0.548,-0.637 L 21,18 c 2.219,0 3,-1.094 3,-2 C 24,15.094 24,3 24,2 24,1 23.252,0 20.986,0 H 2.989 C 0.802,0 0,0.969 0,2 c 0,1.031 0,13.031 0,14 0,0.969 0.828,2 3,2 h 6 c 0,0 1.255,0.035 1.718,0.561 z"
   id="path3"
   style="fill-rule:evenodd" />
<text
   x="3.1824706"
   y="14.463313"
   id="text2986"
   xml:space="preserve"
   style="font-size:16.50078964px;font-style:normal;font-weight:normal;line-height:125%;letter-spacing:0px;word-spacing:0px;fill:#ffffff;fill-opacity:1;stroke:none;font-family:Sans"><tspan
     x="3.1824706"
     y="14.463313"
     id="tspan2988"
     style="font-size:16px;font-style:normal;font-variant:normal;font-weight:normal;font-stretch:normal;font-family:Arial;-inkscape-font-specification:Arial">Qt</tspan></text>
</svg>