<?xml version="1.0" ?><!DOCTYPE svg  PUBLIC '-//W3C//DTD SVG 1.1//EN'  'http://www.w3.org/Graphics/SVG/1.1/DTD/svg11.dtd'><svg enable-background="new 0 0 24 24" height="24px" id="Layer_1" version="1.1" viewBox="-1 -1 26 26" width="24px" xml:space="preserve" xmlns="http://www.w3.org/2000/svg" xmlns:xlink="http://www.w3.org/1999/xlink"><g><g><path clip-rule="evenodd" d="M12,0C5.375,0,0.003,5.373,0.003,12c0,6.627,5.372,12,11.997,12    c6.626,0,11.997-5.373,11.997-12C23.997,5.373,18.626,0,12,0z M16.412,16.709l-0.35,0.35c-0.291,0.291-0.782,0.305-1.088,0.029    l-4.52-3.955c-0.308-0.275-0.541-0.838-0.521-1.25l0.419-7.134C10.374,4.336,10.729,4,11.142,4h0.493    c0.413,0,0.767,0.336,0.787,0.748l0.343,5.934c0.021,0.413,0.262,1,0.535,1.309l3.144,3.628    C16.717,15.928,16.704,16.418,16.412,16.709z" fill-rule="evenodd"/></g></g></svg>