<?xml version="1.0" encoding="iso-8859-1"?>
<!-- Generator: Adobe Illustrator 16.0.0, SVG Export Plug-In . SVG Version: 6.00 Build 0)  -->
<!DOCTYPE svg PUBLIC "-//W3C//DTD SVG 1.1//EN" "http://www.w3.org/Graphics/SVG/1.1/DTD/svg11.dtd">
<svg version="1.1" id="Capa_1" xmlns="http://www.w3.org/2000/svg" xmlns:xlink="http://www.w3.org/1999/xlink" x="0px" y="0px"
	 width="24px" height="24px" viewBox="0 0 24 24" style="enable-background:new 0 0 24 24;" xml:space="preserve">
<g transform="matrix(0.24,0,0,0.24,6,0)">
	<path d="M35.162,0c6.696,0,10.043,4.567,10.043,9.789c0,6.522-5.814,12.555-13.391,12.555c-6.344,0-10.045-3.752-9.869-9.947
		C21.945,7.176,26.35,0,35.162,0z M14.543,100c-5.287,0-9.164-3.262-5.463-17.615l6.07-25.457c1.057-4.077,1.23-5.707,0-5.707
		c-1.588,0-8.451,2.816-12.51,5.59L0,52.406C12.863,41.48,27.662,35.072,34.004,35.072c5.285,0,6.168,6.361,3.525,16.148
		L30.58,77.98c-1.234,4.729-0.703,6.359,0.527,6.359c1.586,0,6.787-1.963,11.896-6.041L46,82.377C33.488,95.1,19.83,100,14.543,100z
		"/>
</g>
</svg>
