<?xml version="1.0" encoding="UTF-8" standalone="no"?>
<!-- Created with Inkscape (http://www.inkscape.org/) -->

<svg
   xmlns:dc="http://purl.org/dc/elements/1.1/"
   xmlns:cc="http://creativecommons.org/ns#"
   xmlns:rdf="http://www.w3.org/1999/02/22-rdf-syntax-ns#"
   xmlns:svg="http://www.w3.org/2000/svg"
   xmlns="http://www.w3.org/2000/svg"
   version="1.1"
   width="38"
   height="64"
   id="svg3188">
  <defs
     id="defs3190" />
  <metadata
     id="metadata3193">
    <rdf:RDF>
      <cc:Work
         rdf:about="">
        <dc:format>image/svg+xml</dc:format>
        <dc:type
           rdf:resource="http://purl.org/dc/dcmitype/StillImage" />
        <dc:title></dc:title>
      </cc:Work>
    </rdf:RDF>
  </metadata>
  <g
     transform="matrix(0.01350552,0,0,0.01350552,13.714284,25.510894)"
     id="layer1-7-21"
     style="fill:#000000">
    <path
       d="M 180,45 C 80.64,45 0,125.64 0,225 0,272.80121 18.660373,316.25889 49.09375,348.5 L 359,675 674.34375,345.6875 C 705.66148,307.67771 716.18839,275.4784 720,225 720,125.64 639.36,45 540,45 448.44628,45 372.79212,113.4776 361.46875,201.96875 l -2.9375,0 C 347.20788,113.4776 271.55372,45 180,45 z"
       id="path2433-6"
       style="fill:#000000;fill-opacity:1;fill-rule:nonzero;stroke:none" />
  </g>
  <g
     transform="matrix(0.01350552,0,0,0.01350552,23.748182,20.900724)"
     id="layer1-7-21-1"
     style="fill:#000000">
    <path
       d="M 180,45 C 80.64,45 0,125.64 0,225 0,272.80121 18.660373,316.25889 49.09375,348.5 L 359,675 674.34375,345.6875 C 705.66148,307.67771 716.18839,275.4784 720,225 720,125.64 639.36,45 540,45 448.44628,45 372.79212,113.4776 361.46875,201.96875 l -2.9375,0 C 347.20788,113.4776 271.55372,45 180,45 z"
       id="path2433-6-7"
       style="fill:#000000;fill-opacity:1;fill-rule:nonzero;stroke:none" />
  </g>
  <g
     transform="matrix(0.01350552,0,0,0.01350552,22.121064,30.39225)"
     id="layer1-7-21-4"
     style="fill:#000000">
    <path
       d="M 180,45 C 80.64,45 0,125.64 0,225 0,272.80121 18.660373,316.25889 49.09375,348.5 L 359,675 674.34375,345.6875 C 705.66148,307.67771 716.18839,275.4784 720,225 720,125.64 639.36,45 540,45 448.44628,45 372.79212,113.4776 361.46875,201.96875 l -2.9375,0 C 347.20788,113.4776 271.55372,45 180,45 z"
       id="path2433-6-0"
       style="fill:#000000;fill-opacity:1;fill-rule:nonzero;stroke:none" />
  </g>
  <g
     transform="matrix(0.01350552,0,0,0.01350552,5.4430977,31.070217)"
     id="layer1-7-21-9"
     style="fill:#000000">
    <path
       d="M 180,45 C 80.64,45 0,125.64 0,225 0,272.80121 18.660373,316.25889 49.09375,348.5 L 359,675 674.34375,345.6875 C 705.66148,307.67771 716.18839,275.4784 720,225 720,125.64 639.36,45 540,45 448.44628,45 372.79212,113.4776 361.46875,201.96875 l -2.9375,0 C 347.20788,113.4776 271.55372,45 180,45 z"
       id="path2433-6-4"
       style="fill:#000000;fill-opacity:1;fill-rule:nonzero;stroke:none" />
  </g>
  <g
     transform="matrix(0.01350552,0,0,0.01350552,3.9515725,21.578691)"
     id="layer1-7-21-8"
     style="fill:#000000">
    <path
       d="M 180,45 C 80.64,45 0,125.64 0,225 0,272.80121 18.660373,316.25889 49.09375,348.5 L 359,675 674.34375,345.6875 C 705.66148,307.67771 716.18839,275.4784 720,225 720,125.64 639.36,45 540,45 448.44628,45 372.79212,113.4776 361.46875,201.96875 l -2.9375,0 C 347.20788,113.4776 271.55372,45 180,45 z"
       id="path2433-6-8"
       style="fill:#000000;fill-opacity:1;fill-rule:nonzero;stroke:none" />
  </g>
  <g
     transform="matrix(0.01350552,0,0,0.01350552,2.1888602,11.951572)"
     id="layer1-7-21-2"
     style="fill:#000000">
    <path
       d="M 180,45 C 80.64,45 0,125.64 0,225 0,272.80121 18.660373,316.25889 49.09375,348.5 L 359,675 674.34375,345.6875 C 705.66148,307.67771 716.18839,275.4784 720,225 720,125.64 639.36,45 540,45 448.44628,45 372.79212,113.4776 361.46875,201.96875 l -2.9375,0 C 347.20788,113.4776 271.55372,45 180,45 z"
       id="path2433-6-45"
       style="fill:#000000;fill-opacity:1;fill-rule:nonzero;stroke:none" />
  </g>
  <g
     transform="matrix(0.01350552,0,0,0.01350552,8.5617415,3.9515722)"
     id="layer1-7-21-5"
     style="fill:#000000">
    <path
       d="M 180,45 C 80.64,45 0,125.64 0,225 0,272.80121 18.660373,316.25889 49.09375,348.5 L 359,675 674.34375,345.6875 C 705.66148,307.67771 716.18839,275.4784 720,225 720,125.64 639.36,45 540,45 448.44628,45 372.79212,113.4776 361.46875,201.96875 l -2.9375,0 C 347.20788,113.4776 271.55372,45 180,45 z"
       id="path2433-6-1"
       style="fill:#000000;fill-opacity:1;fill-rule:nonzero;stroke:none" />
  </g>
  <g
     transform="matrix(0.01350552,0,0,0.01350552,19.00242,3.409199)"
     id="layer1-7-21-7"
     style="fill:#000000">
    <path
       d="M 180,45 C 80.64,45 0,125.64 0,225 0,272.80121 18.660373,316.25889 49.09375,348.5 L 359,675 674.34375,345.6875 C 705.66148,307.67771 716.18839,275.4784 720,225 720,125.64 639.36,45 540,45 448.44628,45 372.79212,113.4776 361.46875,201.96875 l -2.9375,0 C 347.20788,113.4776 271.55372,45 180,45 z"
       id="path2433-6-11"
       style="fill:#000000;fill-opacity:1;fill-rule:nonzero;stroke:none" />
  </g>
  <g
     transform="matrix(0.01350552,0,0,0.01350552,25.375301,11.544793)"
     id="layer1-7-21-52"
     style="fill:#000000">
    <path
       d="M 180,45 C 80.64,45 0,125.64 0,225 0,272.80121 18.660373,316.25889 49.09375,348.5 L 359,675 674.34375,345.6875 C 705.66148,307.67771 716.18839,275.4784 720,225 720,125.64 639.36,45 540,45 448.44628,45 372.79212,113.4776 361.46875,201.96875 l -2.9375,0 C 347.20788,113.4776 271.55372,45 180,45 z"
       id="path2433-6-76"
       style="fill:#000000;fill-opacity:1;fill-rule:nonzero;stroke:none" />
  </g>
  <g
     transform="matrix(0.01350552,0,0,0.01350552,27.951572,37.985471)"
     id="layer1-7-21-14"
     style="fill:#000000">
    <path
       d="M 180,45 C 80.64,45 0,125.64 0,225 0,272.80121 18.660373,316.25889 49.09375,348.5 L 359,675 674.34375,345.6875 C 705.66148,307.67771 716.18839,275.4784 720,225 720,125.64 639.36,45 540,45 448.44628,45 372.79212,113.4776 361.46875,201.96875 l -2.9375,0 C 347.20788,113.4776 271.55372,45 180,45 z"
       id="path2433-6-2"
       style="fill:#000000;fill-opacity:1;fill-rule:nonzero;stroke:none" />
  </g>
  <g
     transform="matrix(0.01350552,0,0,0.01350552,27.00242,47.070216)"
     id="layer1-7-21-3"
     style="fill:#000000">
    <path
       d="M 180,45 C 80.64,45 0,125.64 0,225 0,272.80121 18.660373,316.25889 49.09375,348.5 L 359,675 674.34375,345.6875 C 705.66148,307.67771 716.18839,275.4784 720,225 720,125.64 639.36,45 540,45 448.44628,45 372.79212,113.4776 361.46875,201.96875 l -2.9375,0 C 347.20788,113.4776 271.55372,45 180,45 z"
       id="path2433-6-22"
       style="fill:#000000;fill-opacity:1;fill-rule:nonzero;stroke:none" />
  </g>
  <g
     transform="matrix(0.01350552,0,0,0.01350552,19.273606,52.493945)"
     id="layer1-7-21-16"
     style="fill:#000000">
    <path
       d="M 180,45 C 80.64,45 0,125.64 0,225 0,272.80121 18.660373,316.25889 49.09375,348.5 L 359,675 674.34375,345.6875 C 705.66148,307.67771 716.18839,275.4784 720,225 720,125.64 639.36,45 540,45 448.44628,45 372.79212,113.4776 361.46875,201.96875 l -2.9375,0 C 347.20788,113.4776 271.55372,45 180,45 z"
       id="path2433-6-85"
       style="fill:#000000;fill-opacity:1;fill-rule:nonzero;stroke:none" />
  </g>
  <g
     transform="matrix(0.01350552,0,0,0.01350552,8.6973343,52.493945)"
     id="layer1-7-21-76"
     style="fill:#000000">
    <path
       d="M 180,45 C 80.64,45 0,125.64 0,225 0,272.80121 18.660373,316.25889 49.09375,348.5 L 359,675 674.34375,345.6875 C 705.66148,307.67771 716.18839,275.4784 720,225 720,125.64 639.36,45 540,45 448.44628,45 372.79212,113.4776 361.46875,201.96875 l -2.9375,0 C 347.20788,113.4776 271.55372,45 180,45 z"
       id="path2433-6-18"
       style="fill:#000000;fill-opacity:1;fill-rule:nonzero;stroke:none" />
  </g>
  <g
     transform="matrix(0.01350552,0,0,0.01350552,1.1041145,47.341403)"
     id="layer1-7-21-92"
     style="fill:#000000">
    <path
       d="M 180,45 C 80.64,45 0,125.64 0,225 0,272.80121 18.660373,316.25889 49.09375,348.5 L 359,675 674.34375,345.6875 C 705.66148,307.67771 716.18839,275.4784 720,225 720,125.64 639.36,45 540,45 448.44628,45 372.79212,113.4776 361.46875,201.96875 l -2.9375,0 C 347.20788,113.4776 271.55372,45 180,45 z"
       id="path2433-6-79"
       style="fill:#000000;fill-opacity:1;fill-rule:nonzero;stroke:none" />
  </g>
  <g
     transform="matrix(0.01350552,0,0,0.01350552,0.69733483,38.934623)"
     id="layer1-7-21-54"
     style="fill:#000000">
    <path
       d="M 180,45 C 80.64,45 0,125.64 0,225 0,272.80121 18.660373,316.25889 49.09375,348.5 L 359,675 674.34375,345.6875 C 705.66148,307.67771 716.18839,275.4784 720,225 720,125.64 639.36,45 540,45 448.44628,45 372.79212,113.4776 361.46875,201.96875 l -2.9375,0 C 347.20788,113.4776 271.55372,45 180,45 z"
       id="path2433-6-3"
       style="fill:#000000;fill-opacity:1;fill-rule:nonzero;stroke:none" />
  </g>
</svg>
