<?xml version="1.0" encoding="UTF-8" standalone="no"?>
<!-- Created with Inkscape (http://www.inkscape.org/) -->

<svg
   xmlns:dc="http://purl.org/dc/elements/1.1/"
   xmlns:cc="http://creativecommons.org/ns#"
   xmlns:rdf="http://www.w3.org/1999/02/22-rdf-syntax-ns#"
   xmlns:svg="http://www.w3.org/2000/svg"
   xmlns="http://www.w3.org/2000/svg"
   version="1.1"
   width="14"
   height="64"
   id="svg2985">
  <defs
     id="defs2987" />
  <metadata
     id="metadata2990">
    <rdf:RDF>
      <cc:Work
         rdf:about="">
        <dc:format>image/svg+xml</dc:format>
        <dc:type
           rdf:resource="http://purl.org/dc/dcmitype/StillImage" />
        <dc:title></dc:title>
      </cc:Work>
    </rdf:RDF>
  </metadata>
  <g
     transform="matrix(0.01708367,0,0,0.01708367,0.9685213,14.09564)"
     id="layer1-7-21"
     style="fill:#000000">
    <path
       d="M 180,45 C 80.64,45 0,125.64 0,225 0,272.80121 18.660373,316.25889 49.09375,348.5 L 359,675 674.34375,345.6875 C 705.66148,307.67771 716.18839,275.4784 720,225 720,125.64 639.36,45 540,45 448.44628,45 372.79212,113.4776 361.46875,201.96875 l -2.9375,0 C 347.20788,113.4776 271.55372,45 180,45 z"
       id="path2433-6"
       style="fill:#000000;fill-opacity:1;fill-rule:nonzero;stroke:none" />
  </g>
  <g
     transform="matrix(0.01708367,0,0,0.01708367,1.0363195,39.138015)"
     id="layer1-7-21-1"
     style="fill:#000000">
    <path
       d="M 180,45 C 80.64,45 0,125.64 0,225 0,272.80121 18.660373,316.25889 49.09375,348.5 L 359,675 674.34375,345.6875 C 705.66148,307.67771 716.18839,275.4784 720,225 720,125.64 639.36,45 540,45 448.44628,45 372.79212,113.4776 361.46875,201.96875 l -2.9375,0 C 347.20788,113.4776 271.55372,45 180,45 z"
       id="path2433-6-7"
       style="fill:#000000;fill-opacity:1;fill-rule:nonzero;stroke:none" />
  </g>
</svg>
