<?xml version="1.0" ?><!DOCTYPE svg  PUBLIC '-//W3C//DTD SVG 1.1//EN'  'http://www.w3.org/Graphics/SVG/1.1/DTD/svg11.dtd'><svg enable-background="new 0 0 512 512" height="512px" id="Layer_1" version="1.1" viewBox="0 0 512 512" width="512px" xml:space="preserve" xmlns="http://www.w3.org/2000/svg" xmlns:xlink="http://www.w3.org/1999/xlink"><path d="M259.935,35.782C118.566,32.994,2.199,120.109,0.031,230.351c-0.757,38.327,12.399,74.401,35.813,105.276h-0.007  c40.265,51.728-3.682,140.655-3.682,140.655l129.75-55.878c27.953,8.832,58.33,13.979,90.162,14.605  c141.367,2.785,257.732-84.323,259.903-194.569C514.144,130.197,401.302,38.569,259.935,35.782 M146.562,267.098  c-17.417,0-31.534-14.119-31.534-31.532c0-17.414,14.117-31.534,31.534-31.534c17.415,0,31.534,14.121,31.534,31.534  C178.096,252.979,163.978,267.098,146.562,267.098 M251.671,267.098c-17.415,0-31.532-14.119-31.532-31.532  c0-17.414,14.117-31.534,31.532-31.534c17.417,0,31.534,14.121,31.534,31.534C283.205,252.979,269.088,267.098,251.671,267.098   M356.781,267.098c-17.417,0-31.534-14.119-31.534-31.532c0-17.414,14.117-31.534,31.534-31.534s31.532,14.121,31.532,31.534  C388.314,252.979,374.198,267.098,356.781,267.098"/></svg>