<?xml version="1.0" encoding="UTF-8" standalone="no"?>
<!-- Created with Inkscape (http://www.inkscape.org/) -->

<svg
   xmlns:dc="http://purl.org/dc/elements/1.1/"
   xmlns:cc="http://creativecommons.org/ns#"
   xmlns:rdf="http://www.w3.org/1999/02/22-rdf-syntax-ns#"
   xmlns:svg="http://www.w3.org/2000/svg"
   xmlns="http://www.w3.org/2000/svg"
   version="1.1"
   width="43"
   height="64"
   id="svg3216">
  <defs
     id="defs3218" />
  <metadata
     id="metadata3221">
    <rdf:RDF>
      <cc:Work
         rdf:about="">
        <dc:format>image/svg+xml</dc:format>
        <dc:type
           rdf:resource="http://purl.org/dc/dcmitype/StillImage" />
        <dc:title></dc:title>
      </cc:Work>
    </rdf:RDF>
  </metadata>
  <g
     transform="matrix(0.02066218,0,0,0.02066218,-2.4320931,20.55282)"
     id="layer1"
     style="stroke:#000000">
    <path
       d="m 272.70141,238.71731 c -66.24,0 -119.99995,53.75999 -119.99995,120 0,134.75551 135.93315,170.0873 228.56245,303.30804 87.57424,-132.40336 228.5625,-172.8546 228.5625,-303.30804 0,-66.24 -53.7599,-120.00001 -120,-120 -48.0479,0 -89.4016,28.37043 -108.5625,69.1875 -19.1608,-40.81708 -60.5145,-69.18751 -108.5625,-69.1875 z"
       id="path7"
       style="fill:none;stroke:#000000;stroke-width:18.70000076;stroke-miterlimit:4;stroke-opacity:1" />
  </g>
  <g
     transform="matrix(0.02066218,0,0,0.02066218,-0.28966815,10.791908)"
     id="layer1-1"
     style="stroke:#000000">
    <path
       d="m 272.70141,238.71731 c -66.24,0 -119.99995,53.75999 -119.99995,120 0,134.75551 135.93315,170.0873 228.56245,303.30804 87.57424,-132.40336 228.5625,-172.8546 228.5625,-303.30804 0,-66.24 -53.7599,-120.00001 -120,-120 -48.0479,0 -89.4016,28.37043 -108.5625,69.1875 -19.1608,-40.81708 -60.5145,-69.18751 -108.5625,-69.1875 z"
       id="path7-7"
       style="fill:none;stroke:#000000;stroke-width:18.70000076;stroke-miterlimit:4;stroke-opacity:1" />
  </g>
  <g
     transform="matrix(0.02066218,0,0,0.02066218,5.6723914,2.2553224)"
     id="layer1-4"
     style="stroke:#000000">
    <path
       d="m 272.70141,238.71731 c -66.24,0 -119.99995,53.75999 -119.99995,120 0,134.75551 135.93315,170.0873 228.56245,303.30804 87.57424,-132.40336 228.5625,-172.8546 228.5625,-303.30804 0,-66.24 -53.7599,-120.00001 -120,-120 -48.0479,0 -89.4016,28.37043 -108.5625,69.1875 -19.1608,-40.81708 -60.5145,-69.18751 -108.5625,-69.1875 z"
       id="path7-0"
       style="fill:none;stroke:#000000;stroke-width:18.70000076;stroke-miterlimit:4;stroke-opacity:1" />
  </g>
  <g
     transform="matrix(0.02066218,0,0,0.02066218,15.699492,-1.4032145)"
     id="layer1-9"
     style="stroke:#000000">
    <path
       d="m 272.70141,238.71731 c -66.24,0 -119.99995,53.75999 -119.99995,120 0,134.75551 135.93315,170.0873 228.56245,303.30804 87.57424,-132.40336 228.5625,-172.8546 228.5625,-303.30804 0,-66.24 -53.7599,-120.00001 -120,-120 -48.0479,0 -89.4016,28.37043 -108.5625,69.1875 -19.1608,-40.81708 -60.5145,-69.18751 -108.5625,-69.1875 z"
       id="path7-4"
       style="fill:none;stroke:#000000;stroke-width:18.70000076;stroke-miterlimit:4;stroke-opacity:1" />
  </g>
  <g
     transform="matrix(0.02066218,0,0,0.02066218,24.100576,3.745837)"
     id="layer1-8"
     style="stroke:#000000">
    <path
       d="m 272.70141,238.71731 c -66.24,0 -119.99995,53.75999 -119.99995,120 0,134.75551 135.93315,170.0873 228.56245,303.30804 87.57424,-132.40336 228.5625,-172.8546 228.5625,-303.30804 0,-66.24 -53.7599,-120.00001 -120,-120 -48.0479,0 -89.4016,28.37043 -108.5625,69.1875 -19.1608,-40.81708 -60.5145,-69.18751 -108.5625,-69.1875 z"
       id="path7-8"
       style="fill:none;stroke:#000000;stroke-width:18.70000076;stroke-miterlimit:4;stroke-opacity:1" />
  </g>
  <g
     transform="matrix(0.02066218,0,0,0.02066218,28.978625,12.553425)"
     id="layer1-2"
     style="stroke:#000000">
    <path
       d="m 272.70141,238.71731 c -66.24,0 -119.99995,53.75999 -119.99995,120 0,134.75551 135.93315,170.0873 228.56245,303.30804 87.57424,-132.40336 228.5625,-172.8546 228.5625,-303.30804 0,-66.24 -53.7599,-120.00001 -120,-120 -48.0479,0 -89.4016,28.37043 -108.5625,69.1875 -19.1608,-40.81708 -60.5145,-69.18751 -108.5625,-69.1875 z"
       id="path7-45"
       style="fill:none;stroke:#000000;stroke-width:18.70000076;stroke-miterlimit:4;stroke-opacity:1" />
  </g>
  <g
     transform="matrix(0.02066218,0,0,0.02066218,29.656131,22.445025)"
     id="layer1-5"
     style="stroke:#000000">
    <path
       d="m 272.70141,238.71731 c -66.24,0 -119.99995,53.75999 -119.99995,120 0,134.75551 135.93315,170.0873 228.56245,303.30804 87.57424,-132.40336 228.5625,-172.8546 228.5625,-303.30804 0,-66.24 -53.7599,-120.00001 -120,-120 -48.0479,0 -89.4016,28.37043 -108.5625,69.1875 -19.1608,-40.81708 -60.5145,-69.18751 -108.5625,-69.1875 z"
       id="path7-1"
       style="fill:none;stroke:#000000;stroke-width:18.70000076;stroke-miterlimit:4;stroke-opacity:1" />
  </g>
  <g
     transform="matrix(0.02066218,0,0,0.02066218,29.249627,32.201122)"
     id="layer1-71"
     style="stroke:#000000">
    <path
       d="m 272.70141,238.71731 c -66.24,0 -119.99995,53.75999 -119.99995,120 0,134.75551 135.93315,170.0873 228.56245,303.30804 87.57424,-132.40336 228.5625,-172.8546 228.5625,-303.30804 0,-66.24 -53.7599,-120.00001 -120,-120 -48.0479,0 -89.4016,28.37043 -108.5625,69.1875 -19.1608,-40.81708 -60.5145,-69.18751 -108.5625,-69.1875 z"
       id="path7-15"
       style="fill:none;stroke:#000000;stroke-width:18.70000076;stroke-miterlimit:4;stroke-opacity:1" />
  </g>
  <g
     transform="matrix(0.02066218,0,0,0.02066218,26.133096,41.821718)"
     id="layer1-27"
     style="stroke:#000000">
    <path
       d="m 272.70141,238.71731 c -66.24,0 -119.99995,53.75999 -119.99995,120 0,134.75551 135.93315,170.0873 228.56245,303.30804 87.57424,-132.40336 228.5625,-172.8546 228.5625,-303.30804 0,-66.24 -53.7599,-120.00001 -120,-120 -48.0479,0 -89.4016,28.37043 -108.5625,69.1875 -19.1608,-40.81708 -60.5145,-69.18751 -108.5625,-69.1875 z"
       id="path7-6"
       style="fill:none;stroke:#000000;stroke-width:18.70000076;stroke-miterlimit:4;stroke-opacity:1" />
  </g>
  <g
     transform="matrix(0.02066218,0,0,0.02066218,17.867514,47.512775)"
     id="layer1-14"
     style="stroke:#000000">
    <path
       d="m 272.70141,238.71731 c -66.24,0 -119.99995,53.75999 -119.99995,120 0,134.75551 135.93315,170.0873 228.56245,303.30804 87.57424,-132.40336 228.5625,-172.8546 228.5625,-303.30804 0,-66.24 -53.7599,-120.00001 -120,-120 -48.0479,0 -89.4016,28.37043 -108.5625,69.1875 -19.1608,-40.81708 -60.5145,-69.18751 -108.5625,-69.1875 z"
       id="path7-2"
       style="fill:none;stroke:#000000;stroke-width:18.70000076;stroke-miterlimit:4;stroke-opacity:1" />
  </g>
  <g
     transform="matrix(0.02066218,0,0,0.02066218,7.0274053,46.835268)"
     id="layer1-3"
     style="stroke:#000000">
    <path
       d="m 272.70141,238.71731 c -66.24,0 -119.99995,53.75999 -119.99995,120 0,134.75551 135.93315,170.0873 228.56245,303.30804 87.57424,-132.40336 228.5625,-172.8546 228.5625,-303.30804 0,-66.24 -53.7599,-120.00001 -120,-120 -48.0479,0 -89.4016,28.37043 -108.5625,69.1875 -19.1608,-40.81708 -60.5145,-69.18751 -108.5625,-69.1875 z"
       id="path7-22"
       style="fill:none;stroke:#000000;stroke-width:18.70000076;stroke-miterlimit:4;stroke-opacity:1" />
  </g>
  <g
     transform="matrix(0.02066218,0,0,0.02066218,-0.28966815,39.653696)"
     id="layer1-16"
     style="stroke:#000000">
    <path
       d="m 272.70141,238.71731 c -66.24,0 -119.99995,53.75999 -119.99995,120 0,134.75551 135.93315,170.0873 228.56245,303.30804 87.57424,-132.40336 228.5625,-172.8546 228.5625,-303.30804 0,-66.24 -53.7599,-120.00001 -120,-120 -48.0479,0 -89.4016,28.37043 -108.5625,69.1875 -19.1608,-40.81708 -60.5145,-69.18751 -108.5625,-69.1875 z"
       id="path7-85"
       style="fill:none;stroke:#000000;stroke-width:18.70000076;stroke-miterlimit:4;stroke-opacity:1" />
  </g>
  <g
     transform="matrix(0.02066218,0,0,0.02066218,-2.5931912,29.897598)"
     id="layer1-76"
     style="stroke:#000000">
    <path
       d="m 272.70141,238.71731 c -66.24,0 -119.99995,53.75999 -119.99995,120 0,134.75551 135.93315,170.0873 228.56245,303.30804 87.57424,-132.40336 228.5625,-172.8546 228.5625,-303.30804 0,-66.24 -53.7599,-120.00001 -120,-120 -48.0479,0 -89.4016,28.37043 -108.5625,69.1875 -19.1608,-40.81708 -60.5145,-69.18751 -108.5625,-69.1875 z"
       id="path7-18"
       style="fill:none;stroke:#000000;stroke-width:18.70000076;stroke-miterlimit:4;stroke-opacity:1" />
  </g>
</svg>
