<?xml version="1.0" encoding="UTF-8" standalone="no"?>
<!-- Created with Inkscape (http://www.inkscape.org/) -->

<svg
   xmlns:dc="http://purl.org/dc/elements/1.1/"
   xmlns:cc="http://creativecommons.org/ns#"
   xmlns:rdf="http://www.w3.org/1999/02/22-rdf-syntax-ns#"
   xmlns:svg="http://www.w3.org/2000/svg"
   xmlns="http://www.w3.org/2000/svg"
   version="1.1"
   width="40"
   height="64"
   id="svg3146">
  <defs
     id="defs3148" />
  <metadata
     id="metadata3151">
    <rdf:RDF>
      <cc:Work
         rdf:about="">
        <dc:format>image/svg+xml</dc:format>
        <dc:type
           rdf:resource="http://purl.org/dc/dcmitype/StillImage" />
        <dc:title></dc:title>
      </cc:Work>
    </rdf:RDF>
  </metadata>
  <g
     transform="matrix(0.02066218,0,0,0.02066218,22.474559,-0.99671004)"
     id="layer1-3"
     style="stroke:#000000">
    <path
       d="m 272.70141,238.71731 c -66.24,0 -119.99995,53.75999 -119.99995,120 0,134.75551 135.93315,170.0873 228.56245,303.30804 87.57424,-132.40336 228.5625,-172.8546 228.5625,-303.30804 0,-66.24 -53.7599,-120.00001 -120,-120 -48.0479,0 -89.4016,28.37043 -108.5625,69.1875 -19.1608,-40.81708 -60.5145,-69.18751 -108.5625,-69.1875 z"
       id="path7-22"
       style="fill:none;stroke:#000000;stroke-width:18.70000076;stroke-miterlimit:4;stroke-opacity:1" />
  </g>
  <g
     transform="matrix(0.02066218,0,0,0.02066218,11.49895,-0.86120904)"
     id="layer1-3-1"
     style="stroke:#000000">
    <path
       d="m 272.70141,238.71731 c -66.24,0 -119.99995,53.75999 -119.99995,120 0,134.75551 135.93315,170.0873 228.56245,303.30804 87.57424,-132.40336 228.5625,-172.8546 228.5625,-303.30804 0,-66.24 -53.7599,-120.00001 -120,-120 -48.0479,0 -89.4016,28.37043 -108.5625,69.1875 -19.1608,-40.81708 -60.5145,-69.18751 -108.5625,-69.1875 z"
       id="path7-22-7"
       style="fill:none;stroke:#000000;stroke-width:18.70000076;stroke-miterlimit:4;stroke-opacity:1" />
  </g>
  <g
     transform="matrix(0.02066218,0,0,0.02066218,0.65884156,-0.59020632)"
     id="layer1-3-4"
     style="stroke:#000000">
    <path
       d="m 272.70141,238.71731 c -66.24,0 -119.99995,53.75999 -119.99995,120 0,134.75551 135.93315,170.0873 228.56245,303.30804 87.57424,-132.40336 228.5625,-172.8546 228.5625,-303.30804 0,-66.24 -53.7599,-120.00001 -120,-120 -48.0479,0 -89.4016,28.37043 -108.5625,69.1875 -19.1608,-40.81708 -60.5145,-69.18751 -108.5625,-69.1875 z"
       id="path7-22-0"
       style="fill:none;stroke:#000000;stroke-width:18.70000076;stroke-miterlimit:4;stroke-opacity:1" />
  </g>
  <g
     transform="matrix(0.02066218,0,0,0.02066218,-0.15416685,9.1658912)"
     id="layer1-3-9"
     style="stroke:#000000">
    <path
       d="m 272.70141,238.71731 c -66.24,0 -119.99995,53.75999 -119.99995,120 0,134.75551 135.93315,170.0873 228.56245,303.30804 87.57424,-132.40336 228.5625,-172.8546 228.5625,-303.30804 0,-66.24 -53.7599,-120.00001 -120,-120 -48.0479,0 -89.4016,28.37043 -108.5625,69.1875 -19.1608,-40.81708 -60.5145,-69.18751 -108.5625,-69.1875 z"
       id="path7-22-4"
       style="fill:none;stroke:#000000;stroke-width:18.70000076;stroke-miterlimit:4;stroke-opacity:1" />
  </g>
  <g
     transform="matrix(0.02066218,0,0,0.02066218,-1.1026763,19.463994)"
     id="layer1-3-8"
     style="stroke:#000000">
    <path
       d="m 272.70141,238.71731 c -66.24,0 -119.99995,53.75999 -119.99995,120 0,134.75551 135.93315,170.0873 228.56245,303.30804 87.57424,-132.40336 228.5625,-172.8546 228.5625,-303.30804 0,-66.24 -53.7599,-120.00001 -120,-120 -48.0479,0 -89.4016,28.37043 -108.5625,69.1875 -19.1608,-40.81708 -60.5145,-69.18751 -108.5625,-69.1875 z"
       id="path7-22-8"
       style="fill:none;stroke:#000000;stroke-width:18.70000076;stroke-miterlimit:4;stroke-opacity:1" />
  </g>
  <g
     transform="matrix(0.02066218,0,0,0.02066218,9.6019308,17.295972)"
     id="layer1-3-2"
     style="stroke:#000000">
    <path
       d="m 272.70141,238.71731 c -66.24,0 -119.99995,53.75999 -119.99995,120 0,134.75551 135.93315,170.0873 228.56245,303.30804 87.57424,-132.40336 228.5625,-172.8546 228.5625,-303.30804 0,-66.24 -53.7599,-120.00001 -120,-120 -48.0479,0 -89.4016,28.37043 -108.5625,69.1875 -19.1608,-40.81708 -60.5145,-69.18751 -108.5625,-69.1875 z"
       id="path7-22-45"
       style="fill:none;stroke:#000000;stroke-width:18.70000076;stroke-miterlimit:4;stroke-opacity:1" />
  </g>
  <g
     transform="matrix(0.02066218,0,0,0.02066218,20.306538,17.837978)"
     id="layer1-3-5"
     style="stroke:#000000">
    <path
       d="m 272.70141,238.71731 c -66.24,0 -119.99995,53.75999 -119.99995,120 0,134.75551 135.93315,170.0873 228.56245,303.30804 87.57424,-132.40336 228.5625,-172.8546 228.5625,-303.30804 0,-66.24 -53.7599,-120.00001 -120,-120 -48.0479,0 -89.4016,28.37043 -108.5625,69.1875 -19.1608,-40.81708 -60.5145,-69.18751 -108.5625,-69.1875 z"
       id="path7-22-1"
       style="fill:none;stroke:#000000;stroke-width:18.70000076;stroke-miterlimit:4;stroke-opacity:1" />
  </g>
  <g
     transform="matrix(0.02066218,0,0,0.02066218,26.268597,26.103561)"
     id="layer1-3-7"
     style="stroke:#000000">
    <path
       d="m 272.70141,238.71731 c -66.24,0 -119.99995,53.75999 -119.99995,120 0,134.75551 135.93315,170.0873 228.56245,303.30804 87.57424,-132.40336 228.5625,-172.8546 228.5625,-303.30804 0,-66.24 -53.7599,-120.00001 -120,-120 -48.0479,0 -89.4016,28.37043 -108.5625,69.1875 -19.1608,-40.81708 -60.5145,-69.18751 -108.5625,-69.1875 z"
       id="path7-22-11"
       style="fill:none;stroke:#000000;stroke-width:18.70000076;stroke-miterlimit:4;stroke-opacity:1" />
  </g>
  <g
     transform="matrix(0.02066218,0,0,0.02066218,26.539601,35.724157)"
     id="layer1-3-52"
     style="stroke:#000000">
    <path
       d="m 272.70141,238.71731 c -66.24,0 -119.99995,53.75999 -119.99995,120 0,134.75551 135.93315,170.0873 228.56245,303.30804 87.57424,-132.40336 228.5625,-172.8546 228.5625,-303.30804 0,-66.24 -53.7599,-120.00001 -120,-120 -48.0479,0 -89.4016,28.37043 -108.5625,69.1875 -19.1608,-40.81708 -60.5145,-69.18751 -108.5625,-69.1875 z"
       id="path7-22-76"
       style="fill:none;stroke:#000000;stroke-width:18.70000076;stroke-miterlimit:4;stroke-opacity:1" />
  </g>
  <g
     transform="matrix(0.02066218,0,0,0.02066218,21.52605,44.531745)"
     id="layer1-3-14"
     style="stroke:#000000">
    <path
       d="m 272.70141,238.71731 c -66.24,0 -119.99995,53.75999 -119.99995,120 0,134.75551 135.93315,170.0873 228.56245,303.30804 87.57424,-132.40336 228.5625,-172.8546 228.5625,-303.30804 0,-66.24 -53.7599,-120.00001 -120,-120 -48.0479,0 -89.4016,28.37043 -108.5625,69.1875 -19.1608,-40.81708 -60.5145,-69.18751 -108.5625,-69.1875 z"
       id="path7-22-2"
       style="fill:none;stroke:#000000;stroke-width:18.70000076;stroke-miterlimit:4;stroke-opacity:1" />
  </g>
  <g
     transform="matrix(0.02066218,0,0,0.02066218,11.905454,48.190281)"
     id="layer1-3-3"
     style="stroke:#000000">
    <path
       d="m 272.70141,238.71731 c -66.24,0 -119.99995,53.75999 -119.99995,120 0,134.75551 135.93315,170.0873 228.56245,303.30804 87.57424,-132.40336 228.5625,-172.8546 228.5625,-303.30804 0,-66.24 -53.7599,-120.00001 -120,-120 -48.0479,0 -89.4016,28.37043 -108.5625,69.1875 -19.1608,-40.81708 -60.5145,-69.18751 -108.5625,-69.1875 z"
       id="path7-22-22"
       style="fill:none;stroke:#000000;stroke-width:18.70000076;stroke-miterlimit:4;stroke-opacity:1" />
  </g>
  <g
     transform="matrix(0.02066218,0,0,0.02066218,0.92984411,46.835268)"
     id="layer1-3-16"
     style="stroke:#000000">
    <path
       d="m 272.70141,238.71731 c -66.24,0 -119.99995,53.75999 -119.99995,120 0,134.75551 135.93315,170.0873 228.56245,303.30804 87.57424,-132.40336 228.5625,-172.8546 228.5625,-303.30804 0,-66.24 -53.7599,-120.00001 -120,-120 -48.0479,0 -89.4016,28.37043 -108.5625,69.1875 -19.1608,-40.81708 -60.5145,-69.18751 -108.5625,-69.1875 z"
       id="path7-22-85"
       style="fill:none;stroke:#000000;stroke-width:18.70000076;stroke-miterlimit:4;stroke-opacity:1" />
  </g>
</svg>
