<?xml version="1.0" encoding="UTF-8" standalone="no"?>
<!-- Created with Inkscape (http://www.inkscape.org/) -->

<svg
   xmlns:dc="http://purl.org/dc/elements/1.1/"
   xmlns:cc="http://creativecommons.org/ns#"
   xmlns:rdf="http://www.w3.org/1999/02/22-rdf-syntax-ns#"
   xmlns:svg="http://www.w3.org/2000/svg"
   xmlns="http://www.w3.org/2000/svg"
   version="1.1"
   width="14"
   height="64"
   id="svg2985">
  <defs
     id="defs2987" />
  <metadata
     id="metadata2990">
    <rdf:RDF>
      <cc:Work
         rdf:about="">
        <dc:format>image/svg+xml</dc:format>
        <dc:type
           rdf:resource="http://purl.org/dc/dcmitype/StillImage" />
        <dc:title></dc:title>
      </cc:Work>
    </rdf:RDF>
  </metadata>
  <g
     transform="matrix(0.02066218,0,0,0.02066218,-3.1351966,10.114401)"
     id="layer1-3"
     style="stroke:#000000">
    <path
       d="m 354.26984,222.0954 c -87.86122,0 -159.16882,71.30765 -159.16882,159.16889 0,178.74071 180.30274,225.60505 303.16693,402.31003 116.15912,-175.6208 303.16699,-229.27562 303.16699,-402.31003 0,-87.86123 -71.30753,-159.1689 -159.16889,-159.16889 -63.73109,0 -118.58294,37.63075 -143.9981,91.77081 -25.41503,-54.14008 -80.26688,-91.77082 -143.99811,-91.77081 z"
       id="path7-22"
       style="fill:none;stroke:#000000;stroke-width:24.80381966;stroke-miterlimit:4;stroke-opacity:1" />
    <path
       d="m 355.30873,1415.6406 c -87.86122,0 -159.16882,71.3077 -159.16882,159.1689 0,178.7407 180.30274,225.6051 303.16693,402.31 116.15912,-175.6208 303.16699,-229.2756 303.16699,-402.31 0,-87.8612 -71.30753,-159.1689 -159.16889,-159.1689 -63.73109,0 -118.58294,37.6308 -143.9981,91.7708 -25.41503,-54.14 -80.26688,-91.7708 -143.99811,-91.7708 z"
       id="path7-22-1"
       style="fill:none;stroke:#000000;stroke-width:24.80381966;stroke-miterlimit:4;stroke-opacity:1" />
  </g>
</svg>
