<?xml version="1.0" encoding="UTF-8" standalone="no"?>
<!-- Created with Inkscape (http://www.inkscape.org/) -->

<svg
   xmlns:dc="http://purl.org/dc/elements/1.1/"
   xmlns:cc="http://creativecommons.org/ns#"
   xmlns:rdf="http://www.w3.org/1999/02/22-rdf-syntax-ns#"
   xmlns:svg="http://www.w3.org/2000/svg"
   xmlns="http://www.w3.org/2000/svg"
   version="1.0"
   width="33"
   height="64"
   id="svg2">
  <metadata
     id="metadata24">
    <rdf:RDF>
      <cc:Work
         rdf:about="">
        <dc:format>image/svg+xml</dc:format>
        <dc:type
           rdf:resource="http://purl.org/dc/dcmitype/StillImage" />
        <dc:title></dc:title>
      </cc:Work>
    </rdf:RDF>
  </metadata>
  <defs
     id="defs22" />
  <polygon
     points="13.923077,16.307693 2,4.3846154 2,61.615387 13.923077,54.46154 "
     transform="matrix(0.50004012,0,0,0.50004012,0,-0.00513608)"
     id="polygon6"
     style="fill:#000000;stroke:none" />
  <polygon
     points="49.923077,16.307693 38,4.3846154 38,61.615387 49.923077,54.46154 "
     transform="matrix(-0.50004012,0,0,0.50004012,51.004093,-0.00513608)"
     id="polygon8"
     style="fill:#000000;stroke:none" />
  <polygon
     points="49.923077,-41.69231 38,-53.615387 38,3.6153836 49.923077,-3.5384626 "
     transform="matrix(-0.50004012,0,0,-0.50004012,51.004093,34.997673)"
     id="polygon14"
     style="fill:#000000;stroke:none" />
  <polygon
     points="4.3846154,64 16.307693,56.846153 49.692307,56.846153 61.615387,64 49.692307,71.15385 16.307693,71.15385 "
     transform="matrix(0.50004012,0,0,0.50004012,0,-0.00513608)"
     id="polygon18"
     style="fill:#000000;stroke:none" />
</svg>
