<?xml version="1.0" encoding="UTF-8" standalone="no"?>
<!-- Created with Inkscape (http://www.inkscape.org/) -->

<svg
   xmlns:dc="http://purl.org/dc/elements/1.1/"
   xmlns:cc="http://creativecommons.org/ns#"
   xmlns:rdf="http://www.w3.org/1999/02/22-rdf-syntax-ns#"
   xmlns:svg="http://www.w3.org/2000/svg"
   xmlns="http://www.w3.org/2000/svg"
   version="1.1"
   width="500"
   height="500"
   viewBox="0 0 500 500"
   id="Layer_1"
   xml:space="preserve"><metadata
   id="metadata9"><rdf:RDF><cc:Work
       rdf:about=""><dc:format>image/svg+xml</dc:format><dc:type
         rdf:resource="http://purl.org/dc/dcmitype/StillImage" /><dc:title></dc:title></cc:Work></rdf:RDF></metadata><defs
   id="defs7" />
<path
   d="m 36.992,249.5 c 0,117.932 95.578,213.508 213.508,213.508 117.932,0 213.508,-95.576 213.508,-213.508 C 464.008,131.566 368.432,35.99 250.5,35.99 132.57,35.991 36.992,131.566 36.992,249.5 z M 227.787,104.133 c 0,-12.536 10.177,-22.713 22.713,-22.713 12.537,0 22.715,10.177 22.715,22.713 0,12.536 -10.178,22.713 -22.715,22.713 -12.536,0 -22.713,-10.177 -22.713,-22.713 z M 82.418,249.5 c 0,-12.536 10.177,-22.713 22.714,-22.713 12.536,0 22.713,10.177 22.713,22.713 0,12.537 -10.177,22.715 -22.713,22.715 C 92.596,272.216 82.418,262.037 82.418,249.5 z m 290.737,0 c 0,-12.536 10.175,-22.713 22.711,-22.713 12.54,0 22.715,10.177 22.715,22.713 0,12.537 -10.175,22.715 -22.715,22.715 -12.536,0.001 -22.711,-10.178 -22.711,-22.715 z M 227.787,394.867 c 0,-12.537 10.177,-22.712 22.713,-22.712 12.537,0 22.715,10.175 22.715,22.712 0,12.539 -10.178,22.715 -22.715,22.715 -12.536,0 -22.713,-10.176 -22.713,-22.715 z m -10.63,-134.561 c -4.819,-4.718 -65.958,-66.951 -65.958,-66.951 -6.908,-6.903 -6.908,-18.083 0,-24.985 6.902,-6.902 18.077,-6.902 24.985,0 l 59.961,60.139 c 5.358,5.269 14.173,5.269 19.449,0 l 87.395,-87.396 c 6.9,-6.902 18.08,-6.902 24.985,0 6.9,6.902 6.9,18.083 0,24.985 0,0 -88.672,89.764 -93.394,94.495 -7.363,7.168 -17.53,11.623 -28.623,11.623 -11.268,0 -21.441,-4.543 -28.8,-11.91 z"
   id="path3"
   style="fill:#010101;fill-rule:evenodd" />
</svg>