<?xml version="1.0" ?><svg height="24px" version="1.1" viewBox="0 0 24 24" width="24px" xmlns="http://www.w3.org/2000/svg" xmlns:sketch="http://www.bohemiancoding.com/sketch/ns" xmlns:xlink="http://www.w3.org/1999/xlink"><title/><desc/><defs/><g fill="none" fill-rule="evenodd" id="miu" stroke="none" stroke-width="1"><g id="Artboard-1" transform="translate(-719.000000, -335.000000)"><g id="slice" transform="translate(215.000000, 119.000000)"/><path d="M725.750416,336 C725.335973,336 725,336.334158 725,336.752369 L725,339.247631 C725,339.663153 725.334755,340 725.750416,340 L726.249584,340 C726.664027,340 727,339.665842 727,339.247631 L727,336.752369 C727,336.336847 726.665245,336 726.249584,336 L725.750416,336 L725.750416,336 Z M736,336 C735.447715,336 735,336.447208 735,336.999051 L735,339.000949 C735,339.55271 735.448839,340 736,340 C736.552285,340 737,339.552792 737,339.000949 L737,336.999051 C737,336.44729 736.551161,336 736,336 L736,336 Z M722,342 L722,343 L740,343 L740,342 L722,342 L722,342 Z M728,338 L728,339 L734,339 L734,338 L728,338 L728,338 Z M738,339 L741,339 L741,356 L721,356 L721,339 L723.999512,339 L723.999512,338 L720,338 L720,356 C720,357 721.1,357 721.1,357 L741,357 C741,357 742,357 742,356 L742,338 L738,338 L738,339 Z M726,347.345021 C726.737244,347.282842 727.251416,347.178939 727.542533,347.03331 C727.83365,346.88768 728.051039,346.543247 728.194707,346 L729,346 L729,354 L728.025452,354 L728.025452,348.02244 L726,348.02244 L726,347.345021 Z M735.51417,347.245411 C735.838058,347.887155 736,348.766367 736,349.883073 C736,350.941768 735.85324,351.817354 735.559717,352.509857 C735.134613,353.503291 734.439613,354 733.474696,354 C732.604247,354 731.95648,353.593931 731.531377,352.781781 C731.177124,352.103781 731,351.193751 731,350.051666 C731,349.167002 731.106274,348.407436 731.318826,347.772944 C731.716939,346.590975 732.437242,346 733.479757,346 C734.417684,346 735.095814,346.415133 735.51417,347.245411 C735.51417,347.245411 735.095814,346.415133 735.51417,347.245411 L735.51417,347.245411 Z M734.584307,352.350218 C734.861437,351.917028 735,351.11005 735,349.929258 C735,349.076852 734.899834,348.375549 734.699499,347.825327 C734.499164,347.275106 734.110187,347 733.532554,347 C733.001667,347 732.613524,347.261133 732.368114,347.783406 C732.122703,348.305679 732,349.075104 732,350.091703 C732,350.856772 732.078463,351.471613 732.235392,351.936245 C732.475794,352.645418 732.886475,353 733.467446,353 C733.934894,353 734.307177,352.783408 734.584307,352.350218 C734.584307,352.350218 734.307177,352.783408 734.584307,352.350218 L734.584307,352.350218 Z" fill="#000000" id="common-calendar-day-outline-stroke"/></g></g></svg>