<?xml version="1.0" ?><svg style="enable-background:new 0 0 99.667 100.919;" version="1.1" viewBox="0 0 99.667 100.919" xml:space="preserve" xmlns="http://www.w3.org/2000/svg" xmlns:xlink="http://www.w3.org/1999/xlink"><g id="bell"><path d="M96.679,75.332l-2.468-3.247c-4.633-6.017-7.086-10.661-8.58-13.93C84.137,54.887,84,51.088,84,46.758v-4.676   c0-3.939-1.302-8.355-2.688-13.248c-1.386-4.892-3.335-8.702-5.24-11.43C71.267,10.478,64.209,6.538,55.204,5.585   C55.204,1.862,53.385,0,49.9,0c-3.485,0-5.266,1.862-5.266,5.585c-9.006,0.953-15.93,4.893-20.735,11.819   c-1.906,2.728-3.472,6.538-4.878,11.43C17.613,33.727,17,38.143,17,42.082v4.676c0,4.33-0.836,8.129-2.307,11.397   c-1.472,3.27-4.574,7.913-9.206,13.93l-2.493,3.247c-1.992,2.598-3,5.023-3,7.273c0,5.325,4.673,9.709,14.03,13.151   c9.358,3.442,21.29,5.163,35.803,5.163c14.47,0,26.392-1.721,35.772-5.163c9.379-3.442,14.068-7.826,14.068-13.151   C99.667,80.355,98.67,77.93,96.679,75.332z M17.97,58.934c1.515-3.268,2.273-6.851,2.273-10.748l0.195-5.975   c0-8.443,1.842-15.846,5.526-22.21C30.645,11.993,38.62,7.988,49.889,7.988c11.268,0,19.222,4.005,23.86,12.014   c3.727,6.364,5.591,13.768,5.591,22.21l0.26,5.975c0,3.896,0.756,7.501,2.269,10.813c1.512,3.312,4.622,8.15,9.331,14.514   C79.624,68.838,65.861,66.5,49.909,66.5c-15.996,0-29.782,2.338-41.355,7.014C13.316,67.063,16.454,62.204,17.97,58.934z    M82.795,93.451c-9.126,2.857-20.127,4.286-33.003,4.286c-12.703,0-23.65-1.429-32.841-4.286   C7.759,90.594,3.164,87.195,3.164,83.255c0.755-8.508,26.343-11.925,39.371-13.074c-1.297,1.578-2.073,3.575-2.073,5.749   c0,5.106,4.275,9.245,9.549,9.245c5.274,0,9.549-4.139,9.549-9.245c0-2.326-0.889-4.449-2.353-6.074   c9.231,0.443,17.606,1.747,25.119,3.918c9.439,2.728,14.159,5.845,14.159,9.352C96.484,87.151,91.921,90.594,82.795,93.451z"/></g><g id="Слой_1"/></svg>