<?xml version="1.0" encoding="UTF-8" standalone="no"?>
<!-- Created with Inkscape (http://www.inkscape.org/) -->

<svg
   xmlns:dc="http://purl.org/dc/elements/1.1/"
   xmlns:cc="http://creativecommons.org/ns#"
   xmlns:rdf="http://www.w3.org/1999/02/22-rdf-syntax-ns#"
   xmlns:svg="http://www.w3.org/2000/svg"
   xmlns="http://www.w3.org/2000/svg"
   version="1.0"
   width="33"
   height="64"
   id="svg2">
  <title
     id="title3757">e8</title>
  <metadata
     id="metadata24">
    <rdf:RDF>
      <cc:Work
         rdf:about="">
        <dc:format>image/svg+xml</dc:format>
        <dc:type
           rdf:resource="http://purl.org/dc/dcmitype/StillImage" />
        <dc:title>e8</dc:title>
      </cc:Work>
    </rdf:RDF>
  </metadata>
  <defs
     id="defs22" />
  <polygon
     points="2,61.615387 13.923077,54.46154 13.923077,16.307693 2,4.3846154 "
     transform="matrix(0.50004012,0,0,0.50004012,0,-0.00513608)"
     id="polygon6"
     style="fill:none;stroke:#000000;stroke-width:1.4998796;stroke-linejoin:bevel" />
  <polygon
     points="38,61.615387 49.923077,54.46154 49.923077,16.307693 38,4.3846154 "
     transform="matrix(-0.50004012,0,0,0.50004012,51.004093,-0.00513608)"
     id="polygon8"
     style="fill:none;stroke:#000000;stroke-width:1.4998796;stroke-linejoin:bevel" />
  <polygon
     points="-19,10.615385 -7.076923,-1.3076916 -7.076923,-34.692307 -19,-46.615383 "
     transform="matrix(0,0.50004012,0.50004012,0,25.502047,10.495707)"
     id="polygon10"
     style="fill:none;stroke:#000000;stroke-width:1.4998796;stroke-linejoin:bevel" />
  <polygon
     points="2,3.6153836 13.923077,-3.5384626 13.923077,-41.69231 2,-53.615387 "
     transform="matrix(0.50004012,0,0,-0.50004012,0,34.997673)"
     id="polygon12"
     style="fill:none;stroke:#000000;stroke-width:1.4998796;stroke-linejoin:bevel" />
  <polygon
     points="38,3.6153836 49.923077,-3.5384626 49.923077,-41.69231 38,-53.615387 "
     transform="matrix(-0.50004012,0,0,-0.50004012,51.004093,34.997673)"
     id="polygon14"
     style="fill:none;stroke:#000000;stroke-width:1.4998796;stroke-linejoin:bevel" />
  <polygon
     points="-77,10.615385 -65.07693,-1.3076916 -65.07693,-34.692307 -77,-46.615383 "
     transform="matrix(0,-0.50004012,0.50004012,0,25.502047,24.49683)"
     id="polygon16"
     style="fill:none;stroke:#000000;stroke-width:1.4998796;stroke-linejoin:bevel" />
  <polygon
     points="49.692307,56.846153 61.615387,64 49.692307,71.15385 16.307693,71.15385 4.3846154,64 16.307693,56.846153 "
     transform="matrix(0.50004012,0,0,0.50004012,0,-0.00513608)"
     id="polygon18"
     style="fill:none;stroke:#000000;stroke-width:1.4998796;stroke-linejoin:bevel" />
</svg>
