<?xml version="1.0" ?><!DOCTYPE svg  PUBLIC '-//W3C//DTD SVG 1.1//EN'  'http://www.w3.org/Graphics/SVG/1.1/DTD/svg11.dtd'><svg enable-background="new 0 0 48 48" height="48px" version="1.1" viewBox="0 0 48 48" width="48px" xml:space="preserve" xmlns="http://www.w3.org/2000/svg" xmlns:xlink="http://www.w3.org/1999/xlink"><g id="Expanded"><g><g><path d="M14,46c-3.309,0-6-2.691-6-6s2.691-6,6-6h6v6C20,43.196,17.196,46,14,46z M14,36c-2.206,0-4,1.794-4,4s1.794,4,4,4     c2.289,0,4-2.112,4-4v-4H14z"/></g><g><path d="M34,40c-3.309,0-6-2.691-6-6s2.691-6,6-6h6v6C40,37.196,37.196,40,34,40z M34,30c-2.206,0-4,1.794-4,4s1.794,4,4,4     c2.289,0,4-2.112,4-4v-4H34z"/></g><g><polygon points="20,35 18,35 18,10.323 40,1.523 40,29 38,29 38,4.477 20,11.677    "/></g><g><rect height="21.541" transform="matrix(0.3711 0.9286 -0.9286 0.3711 31.24 -18.1245)" width="2" x="28" y="3.23"/></g></g></g></svg>