<?xml version="1.0" encoding="UTF-8" standalone="no"?>
<!-- Created with Inkscape (http://www.inkscape.org/) -->

<svg
   xmlns:dc="http://purl.org/dc/elements/1.1/"
   xmlns:cc="http://creativecommons.org/ns#"
   xmlns:rdf="http://www.w3.org/1999/02/22-rdf-syntax-ns#"
   xmlns:svg="http://www.w3.org/2000/svg"
   xmlns="http://www.w3.org/2000/svg"
   version="1.1"
   width="25"
   height="100"
   id="svg2">
  <defs
     id="defs4" />
  <metadata
     id="metadata7">
    <rdf:RDF>
      <cc:Work
         rdf:about="">
        <dc:format>image/svg+xml</dc:format>
        <dc:type
           rdf:resource="http://purl.org/dc/dcmitype/StillImage" />
        <dc:title></dc:title>
      </cc:Work>
    </rdf:RDF>
  </metadata>
  <path
     d="m 23.001275,12.389568 a 10.101525,10.101525 0 0 1 -20.2030509,0 10.101525,10.101525 0 1 1 20.2030509,0 z"
     id="path2985"
     style="fill:#000000;fill-opacity:0.09803922;stroke:none" />
  <path
     d="m 23.001276,37.562178 a 10.101526,10.101526 0 0 1 -20.2030512,0 10.101526,10.101526 0 1 1 20.2030512,0 z"
     id="path2985-1"
     style="fill:#000000;stroke:none" />
  <path
     d="m 22.980971,62.836308 a 10.101526,10.101526 0 0 1 -20.2030511,0 10.101526,10.101526 0 1 1 20.2030511,0 z"
     id="path2985-1-9"
     style="fill:#000000;stroke:none" />
  <path
     d="m 22.980971,88.090198 a 10.101525,10.101525 0 0 1 -20.2030509,0 10.101525,10.101525 0 1 1 20.2030509,0 z"
     id="path2985-1-8"
     style="fill:#000000;fill-opacity:0.09803922;stroke:none" />
</svg>
