<?xml version="1.0" ?><!DOCTYPE svg  PUBLIC '-//W3C//DTD SVG 1.1//EN'  'http://www.w3.org/Graphics/SVG/1.1/DTD/svg11.dtd'><svg enable-background="new 0 0 49 49" height="49px" id="Layer_1" version="1.1" viewBox="0 0 49 49" width="49px" xml:space="preserve" xmlns="http://www.w3.org/2000/svg" xmlns:xlink="http://www.w3.org/1999/xlink"><g><path d="M44.75,32H44V21c0-2.383-0.578-4.63-1.584-6.63L16.785,40H44.75c2.209,0,4-1.791,4-4S46.959,32,44.75,32z" fill="#231F20"/><path d="M45.771-0.056l-8.578,8.578c-1.615-1.068-3.436-1.845-5.39-2.231C31.456,3.868,29.33,2,26.813,2   c-2.518,0-4.487,1.868-4.835,4.291C15.096,7.653,10,13.719,10,21v11H8.75c-2.209,0-4,1.791-4,4c0,1.352,0.674,2.541,1.7,3.265   l-6.256,6.257l3.535,3.535L49.307,3.479L45.771-0.056z" fill="#231F20"/><path d="M27,47c2.762,0,5-2.238,5-5H22C22,44.762,24.239,47,27,47z" fill="#231F20"/></g></svg>