<?xml version="1.0" encoding="UTF-8" standalone="no"?>
<!-- Created with Inkscape (http://www.inkscape.org/) -->

<svg
   xmlns:dc="http://purl.org/dc/elements/1.1/"
   xmlns:cc="http://creativecommons.org/ns#"
   xmlns:rdf="http://www.w3.org/1999/02/22-rdf-syntax-ns#"
   xmlns:svg="http://www.w3.org/2000/svg"
   xmlns="http://www.w3.org/2000/svg"
   version="1.0"
   width="24"
   height="24"
   id="svg2513">
  <defs
     id="defs2515" />
  <metadata
     id="metadata2518">
    <rdf:RDF>
      <cc:Work
         rdf:about="">
        <dc:format>image/svg+xml</dc:format>
        <dc:type
           rdf:resource="http://purl.org/dc/dcmitype/StillImage" />
        <dc:title></dc:title>
        <dc:date>2008-03-05</dc:date>
        <dc:creator>
          <cc:Agent>
            <dc:title>Risto Pekkala</dc:title>
          </cc:Agent>
        </dc:creator>
        <dc:rights>
          <cc:Agent>
            <dc:title>Risto Pekkala</dc:title>
          </cc:Agent>
        </dc:rights>
        <dc:publisher>
          <cc:Agent>
            <dc:title>Risto Pekkala</dc:title>
          </cc:Agent>
        </dc:publisher>
        <dc:identifier />
        <dc:source>risto@pekkala.se</dc:source>
        <dc:relation />
        <dc:language />
        <dc:subject>
          <rdf:Bag>
            <rdf:li>Alarm clock</rdf:li>
          </rdf:Bag>
        </dc:subject>
        <dc:coverage />
        <dc:description />
        <dc:contributor>
          <cc:Agent>
            <dc:title />
          </cc:Agent>
        </dc:contributor>
        <cc:license
           rdf:resource="http://creativecommons.org/licenses/publicdomain/" />
      </cc:Work>
      <cc:License
         rdf:about="http://creativecommons.org/licenses/publicdomain/">
        <cc:permits
           rdf:resource="http://creativecommons.org/ns#Reproduction" />
        <cc:permits
           rdf:resource="http://creativecommons.org/ns#Distribution" />
        <cc:permits
           rdf:resource="http://creativecommons.org/ns#DerivativeWorks" />
      </cc:License>
    </rdf:RDF>
  </metadata>
  <g
     transform="translate(-188.85479,-619.57041)"
     id="layer1">
    <g
       transform="matrix(0.12968524,0,0,0.12946003,174.94864,589.16879)"
       id="g3200">
      <path
         d="m 287.14286,412.36218 a 72.85714,72.85714 0 1 1 -145.71428,0 72.85714,72.85714 0 1 1 145.71428,0 z"
         transform="translate(-14.285714,-65)"
         id="path3183"
         style="fill:#161616;fill-opacity:1;fill-rule:nonzero;stroke:none" />
      <path
         d="m 24.999999,306.29074 a 4.2857141,35.357143 0 1 1 -8.571428,0 4.2857141,35.357143 0 1 1 8.571428,0 z"
         transform="matrix(0.8303331,0.5572674,-0.3124075,0.4654898,265.63062,212.35072)"
         id="path3185"
         style="fill:#ffffff;fill-opacity:1;fill-rule:nonzero;stroke:none" />
      <path
         d="m 24.999999,306.29074 a 4.2857141,35.357143 0 1 1 -8.571428,0 4.2857141,35.357143 0 1 1 8.571428,0 z"
         transform="matrix(0.7370802,-0.5047215,0.5439883,0.6838754,-2.958118,122.99527)"
         id="path3187"
         style="fill:#ffffff;fill-opacity:1;fill-rule:nonzero;stroke:none" />
      <path
         d="m 224.28572,355.93362 a 7.8571429,7.8571429 0 1 1 -15.71429,0 7.8571429,7.8571429 0 1 1 15.71429,0 z"
         transform="translate(-16.428567,-8.5714417)"
         id="path3189"
         style="fill:#ffffff;fill-opacity:1;fill-rule:nonzero;stroke:none" />
      <path
         d="m 282.65783,314.96919 c 14.17389,-16.21414 12.51803,-40.87689 -3.69611,-55.05078 -16.21414,-14.17388 -40.87688,-12.51802 -55.05076,3.69612"
         id="path3194"
         style="fill:#161616;fill-opacity:1;fill-rule:nonzero;stroke:none" />
      <path
         d="m 224.28572,355.93362 a 7.8571429,7.8571429 0 1 1 -15.71429,0 7.8571429,7.8571429 0 1 1 15.71429,0 z"
         transform="translate(-25.000002,-95.7143)"
         id="path3196"
         style="fill:#161616;fill-opacity:1;fill-rule:nonzero;stroke:none" />
      <path
         d="m 116.86579,314.96919 c -14.17389,-16.21414 -12.51803,-40.87689 3.69611,-55.05078 16.21414,-14.17388 40.87688,-12.51802 55.05076,3.69612"
         id="path3198"
         style="fill:#161616;fill-opacity:1;fill-rule:nonzero;stroke:none" />
    </g>
  </g>
</svg>
