<?xml version="1.0" ?><svg height="24px" version="1.1" viewBox="2 2 20 20" width="24px" xmlns="http://www.w3.org/2000/svg" xmlns:sketch="http://www.bohemiancoding.com/sketch/ns" xmlns:xlink="http://www.w3.org/1999/xlink"><g fill="none" fill-rule="evenodd" stroke="none" stroke-width="1"><g transform="translate(-863.000000, -443.000000)"><path d="M879.293123,463.912016 L881.389994,466 L882.090006,465.302955 L880.156293,463.377438 C882.480338,461.75008 884,459.052508 884,456 C884,451.029437 879.970563,447 875,447 C870.029437,447 866,451.029437 866,456 C866,459.020924 867.488376,461.694218 869.771825,463.32658 L867.787038,465.302955 L868.48705,466 L870.627686,463.868437 C871.922211,464.589316 873.413145,465 875,465 C876.554595,465 878.017131,464.605844 879.293123,463.912016 L879.293123,463.912016 Z M875,464 C879.418278,464 883,460.418278 883,456 C883,451.581722 879.418278,448 875,448 C870.581722,448 867,451.581722 867,456 C867,460.418278 870.581722,464 875,464 Z M875,455.991751 L875,450 L875.995279,450 L875.995279,455.991751 L876,455.991751 L876,456.996093 L875.995279,456.996093 L875.995279,457 L875,457 L875,456.996093 L871,456.996093 L871,455.991751 L875,455.991751 Z M869.884495,446.663505 C869.544884,446.228822 868.914134,446.151291 868.481824,446.489048 L866.902514,447.722941 C866.469889,448.060945 866.393355,448.692126 866.732452,449.126151 L867.206756,449.733233 C866.989349,450.003254 866.785686,450.284809 866.596832,450.576835 L865.944441,449.741812 C865.266632,448.874256 865.417348,447.614261 866.286853,446.93493 L867.866163,445.701038 C868.732701,445.024024 869.99211,445.176976 870.672505,446.047843 L871.214371,446.741399 C870.896616,446.871457 870.587045,447.017398 870.286645,447.178234 L869.884495,446.663505 Z M883.267548,449.126151 C883.607159,448.691468 883.529795,448.060698 883.097486,447.722941 L881.518176,446.489048 C881.08555,446.151044 880.454602,446.229481 880.115505,446.663505 L879.713355,447.178234 C879.412955,447.017398 879.103384,446.871457 878.785629,446.741399 L879.327495,446.047843 C880.005304,445.180287 881.264333,445.021706 882.133837,445.701038 L883.713147,446.93493 C884.579685,447.611944 884.735955,448.870945 884.055559,449.741812 L883.403168,450.576835 C883.214314,450.284809 883.010651,450.003254 882.793244,449.733233 L883.267548,449.126151 Z" fill="#fff"/></g></g></svg>