<?xml version="1.0" ?><svg clip-rule="evenodd" fill-rule="evenodd" image-rendering="optimizeQuality" shape-rendering="geometricPrecision" text-rendering="geometricPrecision" viewBox="0 0 5000 5000" xmlns="http://www.w3.org/2000/svg"><defs><style type="text/css"><![CDATA[
    .str0 {stroke:#434242;stroke-width:50}
    .fil4 {fill:none}
    .fil0 {fill:#434242}
    .fil2 {fill:#FFFFFF}
    .fil1 {fill:url(#id0)}
    .fil3 {fill:url(#id1)}
   ]]></style><linearGradient gradientUnits="userSpaceOnUse" id="id0" x1="2500" x2="2500" y1="1800" y2="850"><stop offset="0" stop-color="#008BFF"/><stop offset="1" stop-color="#0af"/></linearGradient><linearGradient gradientUnits="userSpaceOnUse" id="id1" x1="4075" x2="924" y1="4139" y2="2210"><stop offset="0" stop-color="#E6E6E6"/><stop offset="1" stop-color="#FEFEFE"/></linearGradient></defs><g id="Layer_x0020_1"><rect class="fil0" height="4100" rx="300" ry="300" width="4000" x="500" y="650"/><path class="fil1 str0" d="M4300 1800h-3600v-750c0-110 90-200 200-200h3200c110 0 200 90 200 200v750z"/><circle class="fil2" cx="3800" cy="1300" r="250"/><path class="fil3 str0" d="M700 1800h3600v2550c0 110-90 200-200 200h-3200c-110 0-200-90-200-200v-2550z"/><path class="fil4 str0" d="M3800 250c55 0 100 45 100 100v950c0 55-45 100-100 100s-100-45-100-100v-950c0-55 45-100 100-100z"/><path class="fil0" d="M3800 250c55 0 100 45 100 100v950c0 55-45 100-100 100s-100-45-100-100v-950c0-55 45-100 100-100z" id="1"/><rect class="fil2" height="900" rx="50" ry="50" width="99.98" x="3750" y="400"/><circle class="fil2" cx="1300" cy="1300" r="250"/><path class="fil4 str0" d="M1300 250c55 0 100 45 100 100v950c0 55-45 100-100 100s-100-45-100-100v-950c0-55 45-100 100-100z"/><path class="fil0" d="M1300 250c55 0 100 45 100 100v950c0 55-45 100-100 100s-100-45-100-100v-950c0-55 45-100 100-100z" id="1"/><rect class="fil2" height="900" rx="50" ry="50" width="99.98" x="1250" y="400"/><path class="fil0" d="M900 4300h700v-400h-700v400zm800 0h700v-400h-700v400zm900 0h700v-400h-700v400zm-1700-600h700v-400h-700v400zm800 0h700v-400h-700v400zm900 0h700v-400h-700v400zm800 0h700v-400h-700v400zm-2500-600h700v-400h-700v400zm800 0h700v-400h-700v400zm900 0h700v-400h-700v400zm800 0h700v-400h-700v400zm-1700-600h700v-400h-700v400zm900 0h700v-400h-700v400zm800 0h700v-400h-700v400z"/></g></svg>