<?xml version="1.0" ?><svg enable-background="new 0 0 32 32" height="32px" id="svg2" version="1.1" viewBox="0 0 32 32" width="32px" xml:space="preserve" xmlns="http://www.w3.org/2000/svg" xmlns:cc="http://creativecommons.org/ns#" xmlns:dc="http://purl.org/dc/elements/1.1/" xmlns:inkscape="http://www.inkscape.org/namespaces/inkscape" xmlns:rdf="http://www.w3.org/1999/02/22-rdf-syntax-ns#" xmlns:sodipodi="http://sodipodi.sourceforge.net/DTD/sodipodi-0.dtd" xmlns:svg="http://www.w3.org/2000/svg"><g id="background"><rect fill="none" height="32" width="32"/></g><g id="notes_x5F_edit"><path d="M24,12H8v2h15h1V12z M28,15.518V4H4v24h11.518c1.614,2.411,4.361,3.999,7.482,4c4.971-0.002,8.998-4.029,9-9   C31.999,19.879,30.411,17.132,28,15.518z M15.517,18c-0.412,0.616-0.743,1.289-0.994,2H8v2h6.058C14.022,22.329,14,22.661,14,23   c0,1.054,0.19,2.061,0.523,3H6V6h20v8.523C25.061,14.19,24.054,14,23,14c-2.143,0-4.107,0.751-5.652,2H8v2H15.517z M23,29.883   c-3.801-0.009-6.876-3.084-6.885-6.883c0.009-3.801,3.084-6.876,6.885-6.884c3.799,0.008,6.874,3.083,6.883,6.884   C29.874,26.799,26.799,29.874,23,29.883z"/><polygon points="22,27 19,27 19,24  "/><rect height="4.243" transform="matrix(-0.7071 0.7071 -0.7071 -0.7071 56.5269 20.5858)" width="7.071" x="20.464" y="19.879"/></g></svg>